<svg width="1501" height="458" viewBox="0 0 1501 458" fill="none" xmlns="http://www.w3.org/2000/svg">
<g clip-path="url(#clip0_1_3)">
<g clip-path="url(#clip1_1_3)">
<g clip-path="url(#clip2_1_3)">
<g clip-path="url(#clip3_1_3)">
<g clip-path="url(#clip4_1_3)">
<g clip-path="url(#clip5_1_3)">
<path d="M1495.15 97.399C1488.12 50.746 1468.06 37.7778 1468.06 37.7778C1406.47 -10.2758 1329.61 0.0806097 1260.56 6.98488C1138.66 7.26499 1017.25 17.5305 895.627 23.0343C640.346 23.8746 382.882 10.0661 128.87 44.1218C105.008 54.5729 -23.2316 46.1734 5.76705 103.368C13.3678 127.162 41.1022 153.568 40.2543 175.401C44.0547 179.224 49.3351 170.454 51.5873 175.962C59.472 190.796 72.3493 183.797 82.9101 192.567C68.1969 215.987 78.754 235.488 88.8189 255.921C71.0851 261.239 48.3509 258.722 38.146 276.357C37.0899 289.14 31.3893 286.714 25.1247 286.154C20.5484 285.779 11.3276 287.179 12.8757 291.192C18.1561 304.906 -4.50986 312.839 9.70748 326.273C-0.0735698 340.831 16.4679 353.425 14.2157 369.194C13.9318 372.366 15.48 375.073 17.9441 375.818C28.8532 379.831 12.9476 387.67 14.6359 396.16C126.546 454.195 247.958 414.076 362.612 440.758C392.383 422.096 370.001 447.382 381.898 443.464C391.187 438.892 397.944 457.833 408.433 447.102C410.053 444.024 407.589 436.745 413.357 438.146C416.386 438.892 419.062 438.706 419.482 434.414C420.118 427.975 414.557 431.987 413.077 428.63C429.055 411.649 425.114 452.049 440.104 450.368C439.4 445.425 435.039 438.331 443.976 439.266C452.845 432.177 453.125 426.298 461.01 442.253C461.29 445.705 462.698 448.131 464.95 449.808C489.584 432.457 514.079 455.967 539.909 448.131C555.747 439.546 570.948 452.795 586.994 449.528C592.626 446.916 598.327 442.253 603.747 450.088C670.117 451.769 740.852 444.77 803.778 450.368C971.922 439.917 1151.61 454.661 1328.91 440.852C1370.72 435.534 1414.14 427.975 1454.9 421.911C1454.9 421.911 1487.91 405.301 1487.91 330.66C1487.91 256.019 1494.94 265.346 1496 205.91C1497.05 146.475 1501.98 144.052 1494.94 97.399H1495.15Z" fill="#A437DB"/>
<g clip-path="url(#clip6_1_3)">
<path d="M315.288 351.77C295.31 351.77 277.581 347.068 262.102 337.664C246.578 328.305 234.451 314.806 225.722 297.167C216.993 279.528 212.628 258.357 212.628 233.654C212.628 209.131 217.128 188.027 226.127 170.343C235.171 152.66 247.545 139.003 263.249 129.374C278.953 119.79 296.907 114.997 317.11 114.997C332.949 114.997 346.133 117.967 356.663 123.907C367.192 129.801 375.764 136.213 382.378 143.143L367.529 160.287C361.815 154.122 354.953 149.038 346.943 145.033C338.934 141.028 329.215 139.026 317.785 139.026C302.172 139.026 288.605 142.85 277.086 150.5C265.522 158.149 256.59 168.971 250.29 182.965C243.991 196.959 240.841 213.63 240.841 232.979C240.841 262.182 247.478 285.31 260.752 302.364C274.026 319.373 293.037 327.877 317.785 327.877C326.11 327.877 334.074 326.707 341.679 324.367C349.238 321.983 355.38 318.54 360.105 314.041V252.755H310.833V230.144H385.146V325.38C377.901 333.074 368.249 339.396 356.19 344.346C344.086 349.296 330.452 351.77 315.288 351.77ZM450.886 351.77C445.531 351.77 440.897 349.881 436.982 346.101C433.067 342.321 431.11 337.281 431.11 330.982C431.11 324.727 433.067 319.62 436.982 315.661C440.897 311.701 445.531 309.721 450.886 309.721C456.285 309.721 460.92 311.701 464.79 315.661C468.705 319.62 470.662 324.727 470.662 330.982C470.662 337.281 468.705 342.321 464.79 346.101C460.92 349.881 456.285 351.77 450.886 351.77ZM610.714 351.77C591.726 351.77 574.762 347.068 559.823 337.664C544.884 328.305 533.095 314.806 524.456 297.167C515.816 279.528 511.496 258.357 511.496 233.654C511.496 209.131 515.861 188.027 524.591 170.343C533.365 152.66 545.357 139.003 560.565 129.374C575.774 119.79 593.031 114.997 612.334 114.997C626.103 114.997 638.275 117.81 648.849 123.434C659.468 129.104 668.063 135.673 674.632 143.143L659.851 160.287C653.911 153.807 647.027 148.655 639.197 144.83C631.413 140.961 622.639 139.026 612.874 139.026C598.16 139.026 585.314 142.85 574.335 150.5C563.31 158.149 554.783 168.971 548.754 182.965C542.724 196.959 539.709 213.63 539.709 232.979C539.709 252.418 542.634 269.246 548.484 283.465C554.378 297.684 562.703 308.641 573.457 316.336C584.256 324.03 597.013 327.877 611.727 327.877C622.706 327.877 632.538 325.74 641.222 321.465C649.907 317.19 657.916 310.868 665.25 302.499L680.234 318.833C671.235 329.497 661.043 337.641 649.659 343.266C638.32 348.936 625.338 351.77 610.714 351.77ZM749.417 351.77C739.338 351.77 732.026 348.666 727.481 342.456C722.891 336.247 720.596 327.202 720.596 315.323V99.676H747.325V317.483C747.325 321.983 748.134 325.155 749.754 327C751.419 328.8 753.399 329.7 755.694 329.7C756.594 329.7 757.449 329.677 758.259 329.632C759.069 329.542 760.194 329.34 761.634 329.025L765.076 349.003C763.231 349.768 760.981 350.421 758.326 350.961C755.716 351.5 752.747 351.77 749.417 351.77ZM834.798 347.653H808.07V179.05H834.798V347.653ZM821.907 143.48C816.552 143.48 812.232 141.816 808.948 138.486C805.618 135.111 803.953 130.634 803.953 125.054C803.953 119.88 805.618 115.65 808.948 112.365C812.232 109.035 816.552 107.371 821.907 107.371C827.306 107.371 831.648 109.035 834.933 112.365C838.263 115.65 839.928 119.88 839.928 125.054C839.928 130.634 838.263 135.111 834.933 138.486C831.648 141.816 827.306 143.48 821.907 143.48ZM919.64 347.653H892.912V179.05H915.185L917.682 203.281H918.29C926.434 195.272 935.074 188.522 944.208 183.033C953.297 177.543 963.669 174.798 975.323 174.798C992.917 174.798 1005.83 180.378 1014.07 191.537C1022.3 202.696 1026.42 219.03 1026.42 240.538V347.653H1000.03V243.981C1000.03 227.962 997.462 216.263 992.332 208.883C987.157 201.549 978.698 197.882 966.954 197.882C958.269 197.882 950.417 200.176 943.398 204.766C936.333 209.401 928.414 216.105 919.64 224.88V347.653ZM1108.76 347.653H1082.1V179.05H1108.76V347.653ZM1095.94 143.48C1090.54 143.48 1086.2 141.816 1082.91 138.486C1079.63 135.111 1077.98 130.634 1077.98 125.054C1077.98 119.88 1079.63 115.65 1082.91 112.365C1086.2 109.035 1090.54 107.371 1095.94 107.371C1101.34 107.371 1105.68 109.035 1108.96 112.365C1112.25 115.65 1113.89 119.88 1113.89 125.054C1113.89 130.634 1112.25 135.111 1108.96 138.486C1105.68 141.816 1101.34 143.48 1095.94 143.48ZM1233.02 351.77C1218.17 351.77 1204.83 348.306 1193 341.376C1181.12 334.447 1171.71 324.435 1164.78 311.341C1157.85 298.202 1154.39 282.295 1154.39 263.622C1154.39 244.813 1158.12 228.794 1165.59 215.565C1173.06 202.336 1182.94 192.234 1195.22 185.26C1207.46 178.285 1220.71 174.798 1234.98 174.798C1246.18 174.798 1255.74 176.711 1263.66 180.535C1271.58 184.405 1278.51 189.13 1284.45 194.709L1270.95 211.381C1266.23 206.971 1260.96 203.484 1255.16 200.919C1249.4 198.354 1243.05 197.072 1236.12 197.072C1225.69 197.072 1216.39 199.861 1208.25 205.441C1200.06 211.066 1193.6 218.85 1188.88 228.794C1184.15 238.694 1181.79 250.303 1181.79 263.622C1181.79 283.375 1186.72 299.327 1196.57 311.476C1206.47 323.625 1219.45 329.7 1235.52 329.7C1243.53 329.7 1250.93 328.17 1257.72 325.11C1264.56 322.005 1270.55 318.09 1275.68 313.366L1287.56 330.374C1272.08 344.638 1253.9 351.77 1233.02 351.77Z" fill="white"/>
</g>
</g>
</g>
</g>
</g>
</g>
</g>
<defs>
<clipPath id="clip0_1_3">
<rect width="1500" height="457.176" fill="white" transform="translate(0.0915527 0.823792)"/>
</clipPath>
<clipPath id="clip1_1_3">
<rect width="1497.14" height="563.647" fill="white" transform="translate(1.5238 1.00043)"/>
</clipPath>
<clipPath id="clip2_1_3">
<rect width="1497.14" height="563.647" fill="white" transform="translate(1.5238 1.00043)"/>
</clipPath>
<clipPath id="clip3_1_3">
<rect width="1497.14" height="563.647" fill="white" transform="translate(1.5238 1.00043)"/>
</clipPath>
<clipPath id="clip4_1_3">
<rect width="1497.14" height="563.647" fill="white" transform="translate(1.5238 1.00043)"/>
</clipPath>
<clipPath id="clip5_1_3">
<rect width="1497.14" height="449.446" fill="white" transform="translate(1.5238 1.00043)"/>
</clipPath>
<clipPath id="clip6_1_3">
<rect width="1074.94" height="252.094" fill="white" transform="translate(212.62 99.6761)"/>
</clipPath>
</defs>
</svg>
