<svg xmlns="http://www.w3.org/2000/svg" version="1.1" xmlns:xlink="http://www.w3.org/1999/xlink" xmlns:svgjs="http://svgjs.dev/svgjs" width="1500" height="564" viewBox="0 0 1500 564"><g transform="matrix(1,0,0,1,-0.9084522071641459,-0.17621978357635726)"><svg viewBox="0 0 396 149" data-background-color="#ffffff" preserveAspectRatio="xMidYMid meet" height="564" width="1500" xmlns="http://www.w3.org/2000/svg" xmlns:xlink="http://www.w3.org/1999/xlink"><g id="tight-bounds" transform="matrix(1,0,0,1,0.24008861730862918,0.046665870883074945)"><svg viewBox="0 0 395.52 148.90677961182465" height="148.90677961182465" width="395.52"><g><svg viewBox="0 0 395.52 148.90677961182465" height="148.90677961182465" width="395.52"><g><svg viewBox="0 0 395.52 148.90677961182465" height="148.90677961182465" width="395.52"><g id="textblocktransform"><svg viewBox="0 0 395.52 148.90677961182465" height="148.90677961182465" width="395.52" id="textblock"><g><svg viewBox="0 0 395.52 118.73653075440015" height="118.73653075440015" width="395.52"><path d="M394.594 25.467C392.735 13.142 387.435 9.716 387.435 9.716 371.165-2.979 350.86-0.243 332.619 1.581 300.414 1.655 268.339 4.367 236.208 5.821 168.767 6.043 100.749 2.395 33.643 11.392 27.339 14.153-6.54 11.934 1.121 27.044 3.129 33.33 10.456 40.306 10.232 46.074 11.236 47.084 12.631 44.767 13.226 46.222 15.309 50.141 18.711 48.292 21.501 50.609 17.614 56.796 20.403 61.948 23.062 67.346 18.377 68.751 12.371 68.086 9.675 72.745 9.396 76.122 7.89 75.481 6.235 75.333 5.026 75.234 2.59 75.604 2.999 76.664 4.394 80.287-1.594 82.383 2.162 85.932-0.422 89.778 3.948 93.105 3.353 97.271 3.278 98.109 3.687 98.824 4.338 99.021 7.22 100.081 3.018 102.152 3.464 104.395 33.029 119.727 65.104 109.128 95.394 116.177 103.259 111.247 97.346 117.927 100.489 116.892 102.943 115.684 104.728 120.688 107.499 117.853 107.927 117.04 107.276 115.117 108.8 115.487 109.6 115.684 110.307 115.635 110.418 114.501 110.586 112.8 109.117 113.86 108.726 112.973 112.947 108.487 111.906 119.16 115.866 118.716 115.68 117.41 114.528 115.536 116.889 115.783 119.232 113.91 119.306 112.357 121.389 116.572 121.463 117.484 121.835 118.125 122.43 118.568 128.938 113.984 135.409 120.195 142.233 118.125 146.417 115.857 150.433 119.357 154.672 118.494 156.16 117.804 157.666 116.572 159.098 118.642 176.632 119.086 195.319 117.237 211.943 118.716 256.364 115.955 303.836 119.85 350.674 116.202 361.719 114.797 373.192 112.8 383.958 111.198 383.958 111.198 392.679 106.81 392.679 87.091S394.538 69.836 394.817 54.134C395.096 38.432 396.398 37.792 394.538 25.467Z" opacity="1" fill="#a437db" data-fill-palette-color="tertiary"></path><g transform="matrix(1,0,0,1,55.76832,26.068561146666667)"><svg width="283.98335999999995" viewBox="2.66 -36.74 159.26 37.35" height="66.59940846106682" data-palette-color="#ffffff"><path d="M17.87 0.61L17.87 0.61Q13.43 0.61 9.99-1.48 6.54-3.56 4.6-7.48 2.66-11.4 2.66-16.89L2.66-16.89Q2.66-22.34 4.66-26.27 6.67-30.2 10.16-32.34 13.65-34.47 18.14-34.47L18.14-34.47Q21.66-34.47 24-33.15 26.34-31.84 27.81-30.3L27.81-30.3 25.61-27.76Q24.34-29.13 22.56-30.02 20.78-30.91 18.24-30.91L18.24-30.91Q14.77-30.91 12.21-29.21 9.64-27.51 8.24-24.4 6.84-21.29 6.84-16.99L6.84-16.99Q6.84-10.5 9.79-6.71 12.74-2.93 18.24-2.93L18.24-2.93Q20.09-2.93 21.78-3.45 23.46-3.98 24.51-4.98L24.51-4.98 24.51-14.06 17.21-14.06 17.21-17.41 28.22-17.41 28.22-3.3Q26.61-1.59 23.93-0.49 21.24 0.61 17.87 0.61ZM37.96 0.61L37.96 0.61Q36.77 0.61 35.9-0.23 35.03-1.07 35.03-2.47L35.03-2.47Q35.03-3.86 35.9-4.74 36.77-5.62 37.96-5.62L37.96-5.62Q39.16-5.62 40.02-4.74 40.89-3.86 40.89-2.47L40.89-2.47Q40.89-1.07 40.02-0.23 39.16 0.61 37.96 0.61ZM61.64 0.61L61.64 0.61Q57.42 0.61 54.1-1.48 50.78-3.56 48.86-7.48 46.94-11.4 46.94-16.89L46.94-16.89Q46.94-22.34 48.88-26.27 50.83-30.2 54.21-32.34 57.59-34.47 61.88-34.47L61.88-34.47Q64.94-34.47 67.29-33.22 69.65-31.96 71.11-30.3L71.11-30.3 68.92-27.76Q67.6-29.2 65.86-30.05 64.13-30.91 61.96-30.91L61.96-30.91Q58.69-30.91 56.25-29.21 53.8-27.51 52.46-24.4 51.12-21.29 51.12-16.99L51.12-16.99Q51.12-12.67 52.42-9.51 53.73-6.35 56.12-4.64 58.52-2.93 61.79-2.93L61.79-2.93Q64.23-2.93 66.16-3.88 68.09-4.83 69.72-6.69L69.72-6.69 71.94-4.27Q69.94-1.9 67.41-0.65 64.89 0.61 61.64 0.61ZM82.19 0.61L82.19 0.61Q79.95 0.61 78.94-0.77 77.92-2.15 77.92-4.79L77.92-4.79 77.92-36.74 81.88-36.74 81.88-4.47Q81.88-3.47 82.24-3.06 82.61-2.66 83.12-2.66L83.12-2.66Q83.32-2.66 83.5-2.67 83.68-2.69 84-2.76L84-2.76 84.51 0.2Q84.1 0.37 83.51 0.49 82.93 0.61 82.19 0.61ZM94.84 0L90.88 0 90.88-24.98 94.84-24.98 94.84 0ZM92.93-30.25L92.93-30.25Q91.74-30.25 91.01-30.99 90.27-31.74 90.27-32.98L90.27-32.98Q90.27-34.13 91.01-34.86 91.74-35.6 92.93-35.6L92.93-35.6Q94.13-35.6 94.86-34.86 95.6-34.13 95.6-32.98L95.6-32.98Q95.6-31.74 94.86-30.99 94.13-30.25 92.93-30.25ZM107.41 0L103.45 0 103.45-24.98 106.75-24.98 107.12-21.39 107.21-21.39Q109.02-23.17 111.05-24.39 113.07-25.61 115.66-25.61L115.66-25.61Q119.57-25.61 121.4-23.13 123.23-20.65 123.23-15.87L123.23-15.87 123.23 0 119.32 0 119.32-15.36Q119.32-18.92 118.18-20.56 117.03-22.19 114.42-22.19L114.42-22.19Q112.49-22.19 110.93-21.17 109.36-20.14 107.41-18.19L107.41-18.19 107.41 0ZM135.43 0L131.48 0 131.48-24.98 135.43-24.98 135.43 0ZM133.53-30.25L133.53-30.25Q132.33-30.25 131.6-30.99 130.87-31.74 130.87-32.98L130.87-32.98Q130.87-34.13 131.6-34.86 132.33-35.6 133.53-35.6L133.53-35.6Q134.73-35.6 135.46-34.86 136.19-34.13 136.19-32.98L136.19-32.98Q136.19-31.74 135.46-30.99 134.73-30.25 133.53-30.25ZM153.84 0.61L153.84 0.61Q150.54 0.61 147.91-0.93 145.27-2.47 143.73-5.38 142.19-8.3 142.19-12.45L142.19-12.45Q142.19-16.63 143.85-19.57 145.51-22.51 148.24-24.06 150.96-25.61 154.13-25.61L154.13-25.61Q156.62-25.61 158.38-24.76 160.14-23.9 161.46-22.66L161.46-22.66 159.46-20.19Q158.41-21.17 157.12-21.74 155.84-22.31 154.3-22.31L154.3-22.31Q151.98-22.31 150.17-21.07 148.35-19.82 147.3-17.61 146.25-15.41 146.25-12.45L146.25-12.45Q146.25-8.06 148.44-5.36 150.64-2.66 154.21-2.66L154.21-2.66Q155.99-2.66 157.5-3.34 159.02-4.03 160.16-5.08L160.16-5.08 161.92-2.56Q158.48 0.61 153.84 0.61Z" opacity="1" transform="matrix(1,0,0,1,0,0)" fill="#ffffff" class="wordmark-text-0" data-fill-palette-color="quaternary" id="text-0"></path></svg></g></svg></g><g transform="matrix(1,0,0,1,75.54432,134.45905270625497)"><svg viewBox="0 0 244.43135999999998 14.447726905569679" height="14.447726905569679" width="244.43135999999998"><g transform="matrix(1,0,0,1,0,0)"><svg width="244.43135999999998" viewBox="1.710588348457 -35.18 728.909411651543 43.09" height="14.447726905569679" data-palette-color="#bb84e8"><path d="M10.62 0.32L10.62 0.32Q6.03 0.32 3.98-1.14 1.93-2.59 1.81-5.93L1.81-5.93Q1.68-7.79 1.72-9.3 1.76-10.82 1.88-12.7L1.88-12.7 5.18-12.7Q5.03-10.82 5.04-8.96 5.05-7.1 5.18-5.37L5.18-5.37Q5.3-3.96 6.52-3.28 7.74-2.61 10.55-2.61L10.55-2.61Q13.31-2.61 14.47-3.28 15.63-3.96 15.77-5.37L15.77-5.37Q15.89-7.1 15.88-8.39 15.87-9.67 15.77-11.57L15.77-11.57Q15.67-13.09 14.98-14.11 14.28-15.14 11.89-15.45L11.89-15.45 8.4-16.09Q5.64-16.55 4.26-17.44 2.88-18.33 2.38-19.74 1.88-21.14 1.78-23.17L1.78-23.17Q1.71-24.51 1.73-26.04 1.76-27.56 1.83-29L1.83-29Q1.88-32.32 3.87-33.75 5.86-35.18 10.55-35.18L10.55-35.18Q14.87-35.18 16.83-33.74 18.8-32.3 18.92-28.98L18.92-28.98Q18.99-27.83 18.97-26.14 18.95-24.44 18.87-22.63L18.87-22.63 15.55-22.63Q15.72-24.37 15.72-26.1 15.72-27.83 15.6-29.54L15.6-29.54Q15.5-30.93 14.32-31.59 13.13-32.25 10.47-32.25L10.47-32.25Q7.71-32.25 6.53-31.59 5.35-30.93 5.22-29.54L5.22-29.54Q5.1-27.98 5.11-26.37 5.13-24.76 5.22-23.17L5.22-23.17Q5.32-21.39 5.99-20.45 6.67-19.51 9.18-19.21L9.18-19.21 12.6-18.68Q15.36-18.26 16.75-17.33 18.14-16.41 18.64-14.98 19.14-13.55 19.21-11.57L19.21-11.57Q19.34-9.77 19.31-8.64 19.29-7.52 19.17-5.93L19.17-5.93Q18.99-2.59 17-1.14 15.01 0.32 10.62 0.32ZM30.39 0.29L30.39 0.29Q26.41 0.29 24.78-1.07 23.14-2.44 23.02-5.62L23.02-5.62Q22.87-7.42 22.82-9.63 22.78-11.84 22.82-14.09 22.87-16.33 23.02-18.16L23.02-18.16Q23.14-21.34 24.79-22.71 26.44-24.07 30.39-24.07L30.39-24.07Q34.4-24.07 36-22.71 37.6-21.34 37.72-18.16L37.72-18.16Q37.86-16.36 37.91-14.15 37.96-11.94 37.91-9.7 37.86-7.47 37.72-5.62L37.72-5.62Q37.6-2.47 36-1.09 34.4 0.29 30.39 0.29ZM30.39-2.44L30.39-2.44Q32.64-2.44 33.59-2.99 34.54-3.54 34.62-4.81L34.62-4.81Q34.86-8.62 34.86-11.89 34.86-15.16 34.62-18.97L34.62-18.97Q34.54-20.26 33.62-20.8 32.69-21.34 30.39-21.34L30.39-21.34Q28.1-21.34 27.16-20.8 26.22-20.26 26.14-18.97L26.14-18.97Q25.93-15.16 25.91-11.88 25.9-8.59 26.14-4.81L26.14-4.81Q26.19-3.54 27.18-2.99 28.17-2.44 30.39-2.44ZM45.89-31.69L45.89 0 42.72 0 42.72-31.69 45.89-31.69ZM56.39 0.29L56.39 0.29Q53.65 0.29 52.28-0.93 50.9-2.15 50.9-4.96L50.9-4.96 50.9-23.75 54.02-23.75 54.02-4.69Q54.02-3.49 54.78-2.93 55.53-2.37 57.24-2.37L57.24-2.37Q58.98-2.37 60.28-2.95 61.59-3.54 62.2-4.59L62.2-4.59 62.2-23.75 65.37-23.75 65.37 0 62.2 0 62.2-2.25 61.54-2.25Q59.93 0.29 56.39 0.29ZM84.39-15.41L84.39-15.41 81.31-15.41Q81.41-16.26 81.4-17.36 81.39-18.46 81.39-19.07L81.39-19.07Q81.36-20.36 80.37-20.85 79.38-21.34 77.14-21.34L77.14-21.34Q74.84-21.34 73.87-20.85 72.89-20.36 72.87-19.07L72.87-19.07Q72.7-15.23 72.7-11.93 72.7-8.62 72.87-4.81L72.87-4.81Q72.89-3.47 73.87-2.95 74.84-2.44 77.11-2.44L77.11-2.44Q79.36-2.44 80.36-2.95 81.36-3.47 81.39-4.81L81.39-4.81Q81.39-5.47 81.4-6.41 81.41-7.35 81.31-8.47L81.31-8.47 84.39-8.47Q84.51-7.76 84.5-6.82 84.49-5.88 84.44-5.13L84.44-5.13Q84.29-2.25 82.64-0.98 81 0.29 77.11 0.29L77.11 0.29Q73.21 0.29 71.51-0.98 69.81-2.25 69.69-5.13L69.69-5.13Q69.59-6.93 69.56-9.38 69.52-11.82 69.56-14.28 69.59-16.75 69.69-18.58L69.69-18.58Q69.81-21.53 71.54-22.8 73.26-24.07 77.14-24.07L77.14-24.07Q81-24.07 82.69-22.83 84.39-21.58 84.44-18.73L84.44-18.73Q84.49-17.99 84.5-17.05 84.51-16.11 84.39-15.41ZM75.01 5.86L75.01 5.86 74.26 5.86 74.26 3.96 75.01 3.96Q76.43 3.96 76.26 1.98L76.26 1.98 76.11-0.2 77.85-0.2 77.99 1.98Q78.43 5.86 75.01 5.86ZM93.91 0.27L93.91 0.27Q90.93 0.27 89.5-0.9 88.07-2.08 87.83-4.57L87.83-4.57Q87.8-5.05 87.77-5.54 87.73-6.03 
87.78-6.49L87.78-6.49Q87.95-8.67 89.15-10.14 90.34-11.62 93.69-12.84L93.69-12.84Q95.06-13.33 96.57-13.72 98.08-14.11 99.57-14.48L99.57-14.48 99.57-18.99Q99.57-20.19 98.67-20.76 97.77-21.34 95.52-21.34L95.52-21.34Q93.57-21.34 92.55-20.85 91.54-20.36 91.44-19.07L91.44-19.07Q91.39-18.46 91.39-17.32 91.39-16.19 91.44-15.41L91.44-15.41 88.39-15.41Q88.34-16.02 88.29-16.99 88.24-17.97 88.32-18.73L88.32-18.73Q88.44-21.56 90.16-22.81 91.88-24.07 95.64-24.07L95.64-24.07Q99.57-24.07 101.1-22.71 102.62-21.34 102.65-18.21L102.65-18.21 102.65 0 99.57 0 99.57-2.25 98.89-2.25Q98.28-1.03 97.14-0.38 96.01 0.27 93.91 0.27ZM94.69-2.37L94.69-2.37Q98.21-2.37 99.55-4.47L99.55-4.47 99.55-11.87Q98.38-11.62 97.14-11.29 95.91-10.96 94.25-10.4L94.25-10.4Q92.27-9.67 91.61-8.72 90.95-7.76 90.86-6.49L90.86-6.49Q90.88-6.13 90.89-5.7 90.91-5.27 90.95-4.81L90.95-4.81Q91.13-3.64 92.13-3 93.13-2.37 94.69-2.37ZM97.38-29.05L97.38-29.05 98.64-29.05Q98.55-25.59 96.84-25.59L96.84-25.59Q96.18-25.59 95.85-26.01 95.52-26.44 95.28-26.86 95.03-27.27 94.59-27.27L94.59-27.27Q94.2-27.27 94.1-26.86 94.01-26.44 93.96-25.73L93.96-25.73 92.66-25.73Q92.83-29.27 94.54-29.27L94.54-29.27Q95.23-29.27 95.57-28.86 95.91-28.44 96.17-28.03 96.42-27.61 96.84-27.61L96.84-27.61Q97.3-27.61 97.38-29.05ZM114.34 0.29L114.34 0.29Q110.36 0.29 108.73-1.07 107.09-2.44 106.97-5.62L106.97-5.62Q106.82-7.42 106.77-9.63 106.72-11.84 106.77-14.09 106.82-16.33 106.97-18.16L106.97-18.16Q107.09-21.34 108.74-22.71 110.39-24.07 114.34-24.07L114.34-24.07Q118.34-24.07 119.94-22.71 121.54-21.34 121.66-18.16L121.66-18.16Q121.81-16.36 121.86-14.15 121.91-11.94 121.86-9.7 121.81-7.47 121.66-5.62L121.66-5.62Q121.54-2.47 119.94-1.09 118.34 0.29 114.34 0.29ZM114.34-2.44L114.34-2.44Q116.59-2.44 117.54-2.99 118.49-3.54 118.56-4.81L118.56-4.81Q118.81-8.62 118.81-11.89 118.81-15.16 118.56-18.97L118.56-18.97Q118.49-20.26 117.56-20.8 116.64-21.34 114.34-21.34L114.34-21.34Q112.05-21.34 111.11-20.8 110.17-20.26 110.09-18.97L110.09-18.97Q109.87-15.16 109.86-11.88 109.85-8.59 110.09-4.81L110.09-4.81Q110.14-3.54 111.13-2.99 112.12-2.44 114.34-2.44ZM150.32-15.41L150.32-15.41 147.25-15.41Q147.34-16.26 147.33-17.36 147.32-18.46 147.32-19.07L147.32-19.07Q147.29-20.36 146.31-20.85 145.32-21.34 143.07-21.34L143.07-21.34Q140.78-21.34 139.8-20.85 138.82-20.36 138.8-19.07L138.8-19.07Q138.63-15.23 138.63-11.93 138.63-8.62 138.8-4.81L138.8-4.81Q138.82-3.47 139.8-2.95 140.78-2.44 143.05-2.44L143.05-2.44Q145.29-2.44 146.29-2.95 147.29-3.47 147.32-4.81L147.32-4.81Q147.32-5.47 147.33-6.41 147.34-7.35 147.25-8.47L147.25-8.47 150.32-8.47Q150.44-7.76 150.43-6.82 150.42-5.88 150.37-5.13L150.37-5.13Q150.22-2.25 148.58-0.98 146.93 0.29 143.05 0.29L143.05 0.29Q139.14 0.29 137.44-0.98 135.75-2.25 135.62-5.13L135.62-5.13Q135.53-6.93 135.49-9.38 135.45-11.82 135.49-14.28 135.53-16.75 135.62-18.58L135.62-18.58Q135.75-21.53 137.47-22.8 139.19-24.07 143.07-24.07L143.07-24.07Q146.93-24.07 148.63-22.83 150.32-21.58 150.37-18.73L150.37-18.73Q150.42-17.99 150.43-17.05 150.44-16.11 150.32-15.41ZM161.53 0.29L161.53 0.29Q157.55 0.29 155.91-1.07 154.27-2.44 154.15-5.62L154.15-5.62Q154.01-7.42 153.96-9.63 153.91-11.84 153.96-14.09 154.01-16.33 154.15-18.16L154.15-18.16Q154.27-21.34 155.92-22.71 157.57-24.07 161.53-24.07L161.53-24.07Q165.53-24.07 167.13-22.71 168.73-21.34 168.85-18.16L168.85-18.16Q169-16.36 169.04-14.15 169.09-11.94 169.04-9.7 169-7.47 168.85-5.62L168.85-5.62Q168.73-2.47 167.13-1.09 165.53 0.29 161.53 0.29ZM161.53-2.44L161.53-2.44Q163.77-2.44 164.72-2.99 165.68-3.54 165.75-4.81L165.75-4.81Q165.99-8.62 165.99-11.89 165.99-15.16 165.75-18.97L165.75-18.97Q165.68-20.26 164.75-20.8 163.82-21.34 161.53-21.34L161.53-21.34Q159.23-21.34 158.29-20.8 157.35-20.26 157.28-18.97L157.28-18.97Q157.06-15.16 157.05-11.88 157.03-8.59 157.28-4.81L157.28-4.81Q157.33-3.54 158.31-2.99 159.3-2.44 161.53-2.44ZM176.42-19.19L176.42 0 173.27 0 173.27-23.75 176.42-23.75 176.42-21.53 177.03-21.53Q177.86-22.83 178.97-23.45 180.08-24.07 182.03-24.07L182.03-24.07Q185.96-24.07 186.86-21.34L186.86-21.34 187.52-21.34Q188.33-22.61 189.57-23.34 190.82-24.07 192.77-24.07L192.77-24.07Q195.39-24.07 196.68-22.86 197.97-21.66 197.97-18.82L197.97-18.82 197.97 0 194.85 0 194.85-19.09Q194.8-20.31 194.09-20.86 193.38-21.41 191.75-21.41L191.75-21.41Q188.5-21.41 187.23-19.12L187.23-19.12 187.23 0 184.11 0 184.11-19.09Q184.06-20.31 183.35-20.86 182.64-21.41 181.05-21.41L181.05-21.41Q177.59-21.41 176.42-19.19L176.42-19.19ZM205.56-2.25L205.56 7.91 202.41 7.91 202.41-23.75 205.56-23.75 205.56-21.53 206.25-21.53Q207.08-22.83 208.24-23.45 209.4-24.07 211.42-24.07L211.42-24.07Q214.21-24.07 215.54-22.86 216.87-21.66 216.94-18.82L216.94-18.82Q217.01-17.58 217.04-15.81 217.06-14.04 217.06-12.07 217.06-10.11 217.04-8.25 217.01-6.4 216.94-4.96L216.94-4.96Q216.87-2.15 215.48-0.93 214.08 0.29 211.3 0.29L211.3 0.29Q209.47 0.29 208.3-0.31 207.13-0.9 206.25-2.25L206.25-2.25 205.56-2.25ZM210.42-2.37L210.42-2.37Q213.72-2.37 213.82-4.69L213.82-4.69Q214.01-8.47 213.97-12.16 213.94-15.84 213.82-19.09L213.82-19.09Q213.77-20.31 213.03-20.86 212.3-21.41 210.57-21.41L210.57-21.41Q206.83-21.41 205.56-19.19L205.56-19.19 205.56-4.59Q206.22-3.39 207.36-2.88 208.49-2.37 210.42-2.37ZM225.02-31.69L225.02 0 221.85 0 221.85-31.69 225.02-31.69ZM237.52 0.29L237.52 0.29Q233.49 0.29 231.77-0.98 230.05-2.25 229.92-5.13L229.92-5.13Q229.83-6.93 229.79-9.38 229.75-11.82 229.79-14.28 229.83-16.75 229.92-18.58L229.92-18.58Q230.05-21.53 231.82-22.8 233.59-24.07 237.52-24.07L237.52-24.07Q241.23-24.07 242.89-22.83 244.55-21.58 244.72-18.73L244.72-18.73Q244.77-17.87 244.82-15.75 244.86-13.62 244.67-11.23L244.67-11.23 232.98-11.23Q232.98-9.69 233-8.11 233.02-6.52 233.1-4.81L233.1-4.81Q233.12-3.47 234.12-2.95 235.12-2.44 237.42-2.44L237.42-2.44Q239.69-2.44 240.62-2.95 241.54-3.47 241.64-4.81L241.64-4.81Q241.72-6.15 241.64-8.47L241.64-8.47 244.67-8.47Q244.79-7.76 244.78-6.82 244.77-5.88 244.72-5.13L244.72-5.13Q244.55-2.25 242.97-0.98 241.4 0.29 237.52 0.29ZM232.98-13.82L232.98-13.82 241.69-13.82Q241.74-15.48 241.74-16.99 241.74-18.51 241.64-19.07L241.64-19.07Q241.54-20.29 240.59-20.81 239.64-21.34 237.52-21.34L237.52-21.34Q235.15-21.34 234.13-20.81 233.12-20.29 233.1-19.07L233.1-19.07Q233.02-17.65 232.99-16.36 232.95-15.06 232.98-13.82ZM256.31 0.29L256.31 0.29Q252.5 0.29 251.17-0.98 249.84-2.25 249.84-5.13L249.84-5.13 249.84-21.02 247.5-21.02 247.5-23.75 249.92-23.75 249.92-30.49 253.02-30.49 253.02-23.75 258.39-23.75 258.39-21.02 252.99-21.02 252.99-4.79Q252.99-3.44 253.55-2.93 254.12-2.42 256.39-2.42L256.39-2.42Q257.31-2.42 257.81-2.45 258.31-2.49 258.97-2.51L258.97-2.51 258.97 0.1Q258.39 0.2 257.7 0.24 257.02 0.29 256.31 0.29ZM267.03 0.27L267.03 0.27Q264.05 0.27 262.62-0.9 261.19-2.08 260.95-4.57L260.95-4.57Q260.92-5.05 260.89-5.54 260.85-6.03 260.9-6.49L260.9-6.49Q261.07-8.67 262.27-10.14 263.46-11.62 266.81-12.84L266.81-12.84Q268.18-13.33 269.69-13.72 271.2-14.11 272.69-14.48L272.69-14.48 272.69-18.99Q272.69-20.19 271.79-20.76 270.89-21.34 268.64-21.34L268.64-21.34Q266.69-21.34 265.67-20.85 264.66-20.36 264.56-19.07L264.56-19.07Q264.51-18.46 264.51-17.32 264.51-16.19 264.56-15.41L264.56-15.41 261.51-15.41Q261.46-16.02 261.41-16.99 261.36-17.97 261.44-18.73L261.44-18.73Q261.56-21.56 263.28-22.81 265-24.07 268.76-24.07L268.76-24.07Q272.69-24.07 274.22-22.71 275.74-21.34 275.77-18.21L275.77-18.21 275.77 0 272.69 0 272.69-2.25 272.01-2.25Q271.4-1.03 270.26-0.38 269.13 0.27 267.03 0.27ZM267.81-2.37L267.81-2.37Q271.32-2.37 272.67-4.47L272.67-4.47 272.67-11.87Q271.5-11.62 270.26-11.29 269.03-10.96 267.37-10.4L267.37-10.4Q265.39-9.67 264.73-8.72 264.07-7.76 263.98-6.49L263.98-6.49Q264-6.13 264.01-5.7 264.03-5.27 264.07-4.81L264.07-4.81Q264.24-3.64 265.25-3 266.25-2.37 267.81-2.37ZM284.29-0.44L282.28 4.81 280.45 4.81 281.99 0 279.96 0 279.96-4.44 284.29-4.44 284.29-0.44ZM301.49-2.25L301.49 7.91 298.34 7.91 298.34-23.75 301.49-23.75 301.49-21.53 302.18-21.53Q303.01-22.83 304.17-23.45 305.33-24.07 307.35-24.07L307.35-24.07Q310.14-24.07 311.47-22.86 312.8-21.66 312.87-18.82L312.87-18.82Q312.94-17.58 312.97-15.81 312.99-14.04 312.99-12.07 312.99-10.11 312.97-8.25 312.94-6.4 312.87-4.96L312.87-4.96Q312.8-2.15 311.41-0.93 310.01 0.29 307.23 0.29L307.23 0.29Q305.4 0.29 304.23-0.31 303.06-0.9 302.18-2.25L302.18-2.25 301.49-2.25ZM306.35-2.37L306.35-2.37Q309.65-2.37 309.75-4.69L309.75-4.69Q309.94-8.47 309.9-12.16 309.87-15.84 309.75-19.09L309.75-19.09Q309.7-20.31 308.96-20.86 308.23-21.41 306.5-21.41L306.5-21.41Q302.76-21.41 301.49-19.19L301.49-19.19 301.49-4.59Q302.15-3.39 303.29-2.88 304.42-2.37 306.35-2.37ZM322.71 0.27L322.71 0.27Q319.73 0.27 318.3-0.9 316.87-2.08 316.63-4.57L316.63-4.57Q316.6-5.05 316.57-5.54 316.53-6.03 316.58-6.49L316.58-6.49Q316.75-8.67 317.95-10.14 319.14-11.62 322.49-12.84L322.49-12.84Q323.85-13.33 325.37-13.72 326.88-14.11 328.37-14.48L328.37-14.48 328.37-18.99Q328.37-20.19 327.47-20.76 326.56-21.34 324.32-21.34L324.32-21.34Q322.36-21.34 321.35-20.85 320.34-20.36 320.24-19.07L320.24-19.07Q320.19-18.46 320.19-17.32 320.19-16.19 320.24-15.41L320.24-15.41 317.19-15.41Q317.14-16.02 317.09-16.99 317.04-17.97 317.12-18.73L317.12-18.73Q317.24-21.56 318.96-22.81 320.68-24.07 324.44-24.07L324.44-24.07Q328.37-24.07 329.9-22.71 331.42-21.34 331.45-18.21L331.45-18.21 331.45 0 328.37 0 328.37-2.25 327.69-2.25Q327.08-1.03 325.94-0.38 324.81 0.27 322.71 0.27ZM323.49-2.37L323.49-2.37Q327-2.37 328.35-4.47L328.35-4.47 328.35-11.87Q327.17-11.62 325.94-11.29 324.71-10.96 323.05-10.4L323.05-10.4Q321.07-9.67 320.41-8.72 319.75-7.76 319.65-6.49L319.65-6.49Q319.68-6.13 319.69-5.7 319.7-5.27 319.75-4.81L319.75-4.81Q319.92-3.64 320.92-3 321.93-2.37 323.49-2.37ZM339.16-19.19L339.16 0 336.01 0 336.01-23.75 339.16-23.75 339.16-21.53 339.84-21.53Q340.48-22.75 341.53-23.41 342.58-24.07 344.14-24.07L344.14-24.07Q346.48-24.07 347.62-22.84 348.75-21.61 348.75-18.58L348.75-18.58Q348.75-17.92 348.7-17.02 348.66-16.11 348.56-15.41L348.56-15.41 345.53-15.41Q345.58-15.65 345.59-16.26 345.6-16.87 345.62-17.48 345.63-18.09 345.63-18.31L345.63-18.31Q345.63-
20.12 345.02-20.76 344.41-21.41 343.07-21.41L343.07-21.41Q340.21-21.41 339.16-19.19L339.16-19.19ZM358 0.27L358 0.27Q355.03 0.27 353.6-0.9 352.17-2.08 351.93-4.57L351.93-4.57Q351.9-5.05 351.86-5.54 351.83-6.03 351.88-6.49L351.88-6.49Q352.05-8.67 353.24-10.14 354.44-11.62 357.78-12.84L357.78-12.84Q359.15-13.33 360.67-13.72 362.18-14.11 363.67-14.48L363.67-14.48 363.67-18.99Q363.67-20.19 362.76-20.76 361.86-21.34 359.62-21.34L359.62-21.34Q357.66-21.34 356.65-20.85 355.64-20.36 355.54-19.07L355.54-19.07Q355.49-18.46 355.49-17.32 355.49-16.19 355.54-15.41L355.54-15.41 352.49-15.41Q352.44-16.02 352.39-16.99 352.34-17.97 352.41-18.73L352.41-18.73Q352.54-21.56 354.26-22.81 355.98-24.07 359.74-24.07L359.74-24.07Q363.67-24.07 365.19-22.71 366.72-21.34 366.74-18.21L366.74-18.21 366.74 0 363.67 0 363.67-2.25 362.98-2.25Q362.37-1.03 361.24-0.38 360.1 0.27 358 0.27ZM358.79-2.37L358.79-2.37Q362.3-2.37 363.64-4.47L363.64-4.47 363.64-11.87Q362.47-11.62 361.24-11.29 360.01-10.96 358.35-10.4L358.35-10.4Q356.37-9.67 355.71-8.72 355.05-7.76 354.95-6.49L354.95-6.49Q354.98-6.13 354.99-5.7 355-5.27 355.05-4.81L355.05-4.81Q355.22-3.64 356.22-3 357.22-2.37 358.79-2.37ZM395.47-15.41L395.47-15.41 392.4-15.41Q392.5-16.26 392.48-17.36 392.47-18.46 392.47-19.07L392.47-19.07Q392.45-20.36 391.46-20.85 390.47-21.34 388.22-21.34L388.22-21.34Q385.93-21.34 384.95-20.85 383.98-20.36 383.95-19.07L383.95-19.07Q383.78-15.23 383.78-11.93 383.78-8.62 383.95-4.81L383.95-4.81Q383.98-3.47 384.95-2.95 385.93-2.44 388.2-2.44L388.2-2.44Q390.45-2.44 391.45-2.95 392.45-3.47 392.47-4.81L392.47-4.81Q392.47-5.47 392.48-6.41 392.5-7.35 392.4-8.47L392.4-8.47 395.47-8.47Q395.6-7.76 395.58-6.82 395.57-5.88 395.52-5.13L395.52-5.13Q395.38-2.25 393.73-0.98 392.08 0.29 388.2 0.29L388.2 0.29Q384.29 0.29 382.6-0.98 380.9-2.25 380.78-5.13L380.78-5.13Q380.68-6.93 380.64-9.38 380.61-11.82 380.64-14.28 380.68-16.75 380.78-18.58L380.78-18.58Q380.9-21.53 382.62-22.8 384.34-24.07 388.22-24.07L388.22-24.07Q392.08-24.07 393.78-22.83 395.47-21.58 395.52-18.73L395.52-18.73Q395.57-17.99 395.58-17.05 395.6-16.11 395.47-15.41ZM403.24-31.69L403.24 0 400.06 0 400.06-31.69 403.24-31.69ZM412.14-23.75L412.14 0 408.97 0 408.97-23.75 412.14-23.75ZM414.07-30.69L411.71-25.49 409.63-25.49 411.88-30.69 414.07-30.69ZM420.44-19.19L420.44 0 417.29 0 417.29-23.75 420.44-23.75 420.44-21.53 421.2-21.53Q421.96-22.75 423.19-23.41 424.42-24.07 426.3-24.07L426.3-24.07Q429.06-24.07 430.4-22.86 431.75-21.66 431.75-18.82L431.75-18.82 431.75 0 428.62 0 428.62-19.09Q428.62-20.31 427.85-20.86 427.08-21.41 425.37-21.41L425.37-21.41Q423.67-21.41 422.37-20.83 421.08-20.24 420.44-19.19L420.44-19.19ZM439.95-31.69L439.95-28.17 436.8-28.17 436.8-31.69 439.95-31.69ZM439.95-23.75L439.95 0 436.77 0 436.77-23.75 439.95-23.75ZM459.55-15.41L459.55-15.41 456.47-15.41Q456.57-16.26 456.56-17.36 456.55-18.46 456.55-19.07L456.55-19.07Q456.52-20.36 455.53-20.85 454.54-21.34 452.3-21.34L452.3-21.34Q450-21.34 449.03-20.85 448.05-20.36 448.03-19.07L448.03-19.07Q447.85-15.23 447.85-11.93 447.85-8.62 448.03-4.81L448.03-4.81Q448.05-3.47 449.03-2.95 450-2.44 452.27-2.44L452.27-2.44Q454.52-2.44 455.52-2.95 456.52-3.47 456.55-4.81L456.55-4.81Q456.55-5.47 456.56-6.41 456.57-7.35 456.47-8.47L456.47-8.47 459.55-8.47Q459.67-7.76 459.66-6.82 459.65-5.88 459.6-5.13L459.6-5.13Q459.45-2.25 457.8-0.98 456.16 0.29 452.27 0.29L452.27 0.29Q448.37 0.29 446.67-0.98 444.97-2.25 444.85-5.13L444.85-5.13Q444.75-6.93 444.72-9.38 444.68-11.82 444.72-14.28 444.75-16.75 444.85-18.58L444.85-18.58Q444.97-21.53 446.7-22.8 448.42-24.07 452.3-24.07L452.3-24.07Q456.16-24.07 457.85-22.83 459.55-21.58 459.6-18.73L459.6-18.73Q459.65-17.99 459.66-17.05 459.67-16.11 459.55-15.41ZM469.07 0.27L469.07 0.27Q466.09 0.27 464.66-0.9 463.23-2.08 462.99-4.57L462.99-4.57Q462.96-5.05 462.93-5.54 462.89-6.03 462.94-6.49L462.94-6.49Q463.11-8.67 464.31-10.14 465.5-11.62 468.85-12.84L468.85-12.84Q470.22-13.33 471.73-13.72 473.24-14.11 474.73-14.48L474.73-14.48 474.73-18.99Q474.73-20.19 473.83-20.76 472.93-21.34 470.68-21.34L470.68-21.34Q468.73-21.34 467.71-20.85 466.7-20.36 466.6-19.07L466.6-19.07Q466.55-18.46 466.55-17.32 466.55-16.19 466.6-15.41L466.6-15.41 463.55-15.41Q463.5-16.02 463.45-16.99 463.4-17.97 463.48-18.73L463.48-18.73Q463.6-21.56 465.32-22.81 467.04-24.07 470.8-24.07L470.8-24.07Q474.73-24.07 476.26-22.71 477.78-21.34 477.81-18.21L477.81-18.21 477.81 0 474.73 0 474.73-2.25 474.05-2.25Q473.44-1.03 472.3-0.38 471.17 0.27 469.07 0.27ZM469.85-2.37L469.85-2.37Q473.37-2.37 474.71-4.47L474.71-4.47 474.71-11.87Q473.54-11.62 472.3-11.29 471.07-10.96 469.41-10.4L469.41-10.4Q467.43-9.67 466.77-8.72 466.11-7.76 466.02-6.49L466.02-6.49Q466.04-6.13 466.05-5.7 466.07-5.27 466.11-4.81L466.11-4.81Q466.28-3.64 467.29-3 468.29-2.37 469.85-2.37ZM488.84 0.29L488.84 0.29Q484.91 0.29 483.38-0.98 481.86-2.25 481.74-5.13L481.74-5.13Q481.69-5.88 481.68-6.82 481.66-7.76 481.76-8.47L481.76-8.47 484.62-8.47Q484.57-7.35 484.58-6.41 484.59-5.47 484.62-4.81L484.62-4.81Q484.64-3.47 485.56-2.95 486.47-2.44 488.84-2.44L488.84-2.44Q491.26-2.44 492.25-2.95 493.24-3.47 493.31-4.81L493.31-4.81Q493.38-5.64 493.41-6.04 493.43-6.45 493.41-7.2L493.41-7.2Q493.33-8.45 492.75-9.13 492.16-9.81 490.21-10.11L490.21-10.11 487.35-10.77Q485.15-11.23 483.96-11.94 482.76-12.65 482.27-13.78 481.79-14.92 481.69-16.65L481.69-16.65Q481.61-17.53 481.81-18.58L481.81-18.58Q481.86-21.53 483.41-22.8 484.96-24.07 489.06-24.07L489.06-24.07Q492.99-24.07 494.52-22.83 496.04-21.58 496.19-18.73L496.19-18.73Q496.19-17.99 496.18-17.05 496.17-16.11 496.09-15.41L496.09-15.41 493.14-15.41Q493.26-16.26 493.25-17.36 493.24-18.46 493.19-19.07L493.19-19.07Q493.16-20.36 492.3-20.85 491.43-21.34 489.06-21.34L489.06-21.34Q486.67-21.34 485.8-20.85 484.93-20.36 484.84-19.07L484.84-19.07Q484.81-18.46 484.76-18.05 484.72-17.65 484.74-16.94L484.74-16.94Q484.81-16.09 485-15.43 485.18-14.77 485.83-14.34 486.47-13.92 487.94-13.7L487.94-13.7 490.67-13.13Q493.65-12.52 495.02-11.24 496.38-9.96 496.38-7.37L496.38-7.37Q496.38-6.84 496.37-6.23 496.36-5.62 496.31-5.05L496.31-5.05Q496.14-2.2 494.52-0.95 492.89 0.29 488.84 0.29ZM517.38 0.29L517.38 0.29Q513.35 0.29 511.63-0.98 509.91-2.25 509.78-5.13L509.78-5.13Q509.69-6.93 509.65-9.38 509.61-11.82 509.65-14.28 509.69-16.75 509.78-18.58L509.78-18.58Q509.91-21.53 511.68-22.8 513.45-24.07 517.38-24.07L517.38-24.07Q521.09-24.07 522.75-22.83 524.41-21.58 524.58-18.73L524.58-18.73Q524.63-17.87 524.68-15.75 524.72-13.62 524.53-11.23L524.53-11.23 512.84-11.23Q512.84-9.69 512.86-8.11 512.88-6.52 512.96-4.81L512.96-4.81Q512.98-3.47 513.98-2.95 514.98-2.44 517.28-2.44L517.28-2.44Q519.55-2.44 520.48-2.95 521.4-3.47 521.5-4.81L521.5-4.81Q521.58-6.15 521.5-8.47L521.5-8.47 524.53-8.47Q524.65-7.76 524.64-6.82 524.63-5.88 524.58-5.13L524.58-5.13Q524.41-2.25 522.83-0.98 521.26 0.29 517.38 0.29ZM512.84-13.82L512.84-13.82 521.55-13.82Q521.6-15.48 521.6-16.99 521.6-18.51 521.5-19.07L521.5-19.07Q521.4-20.29 520.45-20.81 519.5-21.34 517.38-21.34L517.38-21.34Q515.01-21.34 513.99-20.81 512.98-20.29 512.96-19.07L512.96-19.07Q512.88-17.65 512.85-16.36 512.81-15.06 512.84-13.82ZM552.92-15.41L552.92-15.41 549.84-15.41Q549.94-16.26 549.93-17.36 549.91-18.46 549.91-19.07L549.91-19.07Q549.89-20.36 548.9-20.85 547.91-21.34 545.67-21.34L545.67-21.34Q543.37-21.34 542.4-20.85 541.42-20.36 541.39-19.07L541.39-19.07Q541.22-15.23 541.22-11.93 541.22-8.62 541.39-4.81L541.39-4.81Q541.42-3.47 542.4-2.95 543.37-2.44 545.64-2.44L545.64-2.44Q547.89-2.44 548.89-2.95 549.89-3.47 549.91-4.81L549.91-4.81Q549.91-5.47 549.93-6.41 549.94-7.35 549.84-8.47L549.84-8.47 552.92-8.47Q553.04-7.76 553.03-6.82 553.02-5.88 552.97-5.13L552.97-5.13Q552.82-2.25 551.17-0.98 549.52 0.29 545.64 0.29L545.64 0.29Q541.74 0.29 540.04-0.98 538.34-2.25 538.22-5.13L538.22-5.13Q538.12-6.93 538.09-9.38 538.05-11.82 538.09-14.28 538.12-16.75 538.22-18.58L538.22-18.58Q538.34-21.53 540.06-22.8 541.79-24.07 545.67-24.07L545.67-24.07Q549.52-24.07 551.22-22.83 552.92-21.58 552.97-18.73L552.97-18.73Q553.02-17.99 553.03-17.05 553.04-16.11 552.92-15.41ZM564.12 0.29L564.12 0.29Q560.14 0.29 558.51-1.07 556.87-2.44 556.75-5.62L556.75-5.62Q556.6-7.42 556.55-9.63 556.5-11.84 556.55-14.09 556.6-16.33 556.75-18.16L556.75-18.16Q556.87-21.34 558.52-22.71 560.17-24.07 564.12-24.07L564.12-24.07Q568.13-24.07 569.72-22.71 571.32-21.34 571.45-18.16L571.45-18.16Q571.59-16.36 571.64-14.15 571.69-11.94 571.64-9.7 571.59-7.47 571.45-5.62L571.45-5.62Q571.32-2.47 569.72-1.09 568.13 0.29 564.12 0.29ZM564.12-2.44L564.12-2.44Q566.37-2.44 567.32-2.99 568.27-3.54 568.35-4.81L568.35-4.81Q568.59-8.62 568.59-11.89 568.59-15.16 568.35-18.97L568.35-18.97Q568.27-20.26 567.34-20.8 566.42-21.34 564.12-21.34L564.12-21.34Q561.83-21.34 560.89-20.8 559.95-20.26 559.87-18.97L559.87-18.97Q559.65-15.16 559.64-11.88 559.63-8.59 559.87-4.81L559.87-4.81Q559.92-3.54 560.91-2.99 561.9-2.44 564.12-2.44ZM579.01-19.19L579.01 0 575.86 0 575.86-23.75 579.01-23.75 579.01-21.53 579.77-21.53Q580.53-22.75 581.76-23.41 582.99-24.07 584.87-24.07L584.87-24.07Q587.63-24.07 588.97-22.86 590.32-21.66 590.32-18.82L590.32-18.82 590.32 0 587.19 0 587.19-19.09Q587.19-20.31 586.42-20.86 585.65-21.41 583.94-21.41L583.94-21.41Q582.23-21.41 580.94-20.83 579.65-20.24 579.01-19.19L579.01-19.19ZM601.3 0.29L601.3 0.29Q597.37 0.29 595.84-0.98 594.32-2.25 594.19-5.13L594.19-5.13Q594.15-5.88 594.13-6.82 594.12-7.76 594.22-8.47L594.22-8.47 597.08-8.47Q597.03-7.35 597.04-6.41 597.05-5.47 597.08-4.81L597.08-4.81Q597.1-3.47 598.02-2.95 598.93-2.44 601.3-2.44L601.3-2.44Q603.72-2.44 604.7-2.95 605.69-3.47 605.77-4.81L605.77-4.81Q605.84-5.64 605.86-6.04 605.89-6.45 605.86-7.2L605.86-7.2Q605.79-8.45 605.21-9.13 604.62-9.81 602.67-10.11L602.67-10.11 599.81-10.77Q597.61-11.23 596.42-11.94 595.22-12.65 594.73-13.78 594.24-14.92 594.15-16.65L594.15-16.65Q594.07-17.53 594.27-18.58L594.27-18.58Q594.32-21.53 595.87-22.8 597.42-24.07 601.52-24.07L601.52-24.07Q605.45-24.07 606.98-22.83 608.5-21.58 608.65-18.73L608.65-18.73Q608.65-17.99 608.64-17.05 608.62-16.11 608.55-15.41L608.55-15.41 605.
6-15.41Q605.72-16.26 605.71-17.36 605.69-18.46 605.64-19.07L605.64-19.07Q605.62-20.36 604.75-20.85 603.89-21.34 601.52-21.34L601.52-21.34Q599.13-21.34 598.26-20.85 597.39-20.36 597.3-19.07L597.3-19.07Q597.27-18.46 597.22-18.05 597.17-17.65 597.2-16.94L597.2-16.94Q597.27-16.09 597.45-15.43 597.64-14.77 598.28-14.34 598.93-13.92 600.4-13.7L600.4-13.7 603.13-13.13Q606.11-12.52 607.48-11.24 608.84-9.96 608.84-7.37L608.84-7.37Q608.84-6.84 608.83-6.23 608.82-5.62 608.77-5.05L608.77-5.05Q608.6-2.2 606.98-0.95 605.35 0.29 601.3 0.29ZM618.04 0.29L618.04 0.29Q615.31 0.29 613.93-0.93 612.55-2.15 612.55-4.96L612.55-4.96 612.55-23.75 615.68-23.75 615.68-4.69Q615.68-3.49 616.43-2.93 617.19-2.37 618.9-2.37L618.9-2.37Q620.63-2.37 621.94-2.95 623.24-3.54 623.86-4.59L623.86-4.59 623.86-23.75 627.03-23.75 627.03 0 623.86 0 623.86-2.25 623.2-2.25Q621.58 0.29 618.04 0.29ZM635.35-31.69L635.35 0 632.18 0 632.18-31.69 635.35-31.69ZM648 0.29L648 0.29Q644.19 0.29 642.86-0.98 641.53-2.25 641.53-5.13L641.53-5.13 641.53-21.02 639.18-21.02 639.18-23.75 641.6-23.75 641.6-30.49 644.7-30.49 644.7-23.75 650.07-23.75 650.07-21.02 644.68-21.02 644.68-4.79Q644.68-3.44 645.24-2.93 645.8-2.42 648.07-2.42L648.07-2.42Q649-2.42 649.5-2.45 650-2.49 650.66-2.51L650.66-2.51 650.66 0.1Q650.07 0.2 649.39 0.24 648.7 0.29 648 0.29ZM660.4 0.29L660.4 0.29Q656.42 0.29 654.78-1.07 653.14-2.44 653.02-5.62L653.02-5.62Q652.88-7.42 652.83-9.63 652.78-11.84 652.83-14.09 652.88-16.33 653.02-18.16L653.02-18.16Q653.14-21.34 654.79-22.71 656.44-24.07 660.4-24.07L660.4-24.07Q664.4-24.07 666-22.71 667.6-21.34 667.72-18.16L667.72-18.16Q667.87-16.36 667.92-14.15 667.96-11.94 667.92-9.7 667.87-7.47 667.72-5.62L667.72-5.62Q667.6-2.47 666-1.09 664.4 0.29 660.4 0.29ZM660.4-2.44L660.4-2.44Q662.64-2.44 663.59-2.99 664.55-3.54 664.62-4.81L664.62-4.81Q664.86-8.62 664.86-11.89 664.86-15.16 664.62-18.97L664.62-18.97Q664.55-20.26 663.62-20.8 662.69-21.34 660.4-21.34L660.4-21.34Q658.1-21.34 657.16-20.8 656.22-20.26 656.15-18.97L656.15-18.97Q655.93-15.16 655.92-11.88 655.9-8.59 656.15-4.81L656.15-4.81Q656.2-3.54 657.19-2.99 658.17-2.44 660.4-2.44ZM663.91-30.69L661.54-25.49 659.47-25.49 661.71-30.69 663.91-30.69ZM675.36-19.19L675.36 0 672.21 0 672.21-23.75 675.36-23.75 675.36-21.53 676.04-21.53Q676.68-22.75 677.73-23.41 678.78-24.07 680.34-24.07L680.34-24.07Q682.68-24.07 683.82-22.84 684.95-21.61 684.95-18.58L684.95-18.58Q684.95-17.92 684.9-17.02 684.86-16.11 684.76-15.41L684.76-15.41 681.73-15.41Q681.78-15.65 681.79-16.26 681.8-16.87 681.82-17.48 681.83-18.09 681.83-18.31L681.83-18.31Q681.83-20.12 681.22-20.76 680.61-21.41 679.27-21.41L679.27-21.41Q676.41-21.41 675.36-19.19L675.36-19.19ZM692.45-31.69L692.45-28.17 689.3-28.17 689.3-31.69 692.45-31.69ZM692.45-23.75L692.45 0 689.27 0 689.27-23.75 692.45-23.75ZM704.8 0.29L704.8 0.29Q700.82 0.29 699.18-1.07 697.55-2.44 697.42-5.62L697.42-5.62Q697.28-7.42 697.23-9.63 697.18-11.84 697.23-14.09 697.28-16.33 697.42-18.16L697.42-18.16Q697.55-21.34 699.19-22.71 700.84-24.07 704.8-24.07L704.8-24.07Q708.8-24.07 710.4-22.71 712-21.34 712.12-18.16L712.12-18.16Q712.27-16.36 712.32-14.15 712.37-11.94 712.32-9.7 712.27-7.47 712.12-5.62L712.12-5.62Q712-2.47 710.4-1.09 708.8 0.29 704.8 0.29ZM704.8-2.44L704.8-2.44Q707.04-2.44 708-2.99 708.95-3.54 709.02-4.81L709.02-4.81Q709.26-8.62 709.26-11.89 709.26-15.16 709.02-18.97L709.02-18.97Q708.95-20.26 708.02-20.8 707.09-21.34 704.8-21.34L704.8-21.34Q702.5-21.34 701.56-20.8 700.62-20.26 700.55-18.97L700.55-18.97Q700.33-15.16 700.32-11.88 700.31-8.59 700.55-4.81L700.55-4.81Q700.6-3.54 701.59-2.99 702.58-2.44 704.8-2.44ZM723.08 0.29L723.08 0.29Q719.15 0.29 717.62-0.98 716.1-2.25 715.98-5.13L715.98-5.13Q715.93-5.88 715.92-6.82 715.9-7.76 716-8.47L716-8.47 718.86-8.47Q718.81-7.35 718.82-6.41 718.83-5.47 718.86-4.81L718.86-4.81Q718.88-3.47 719.8-2.95 720.71-2.44 723.08-2.44L723.08-2.44Q725.5-2.44 726.49-2.95 727.48-3.47 727.55-4.81L727.55-4.81Q727.62-5.64 727.65-6.04 727.67-6.45 727.65-7.2L727.65-7.2Q727.57-8.45 726.99-9.13 726.4-9.81 724.45-10.11L724.45-10.11 721.59-10.77Q719.39-11.23 718.2-11.94 717-12.65 716.51-13.78 716.03-14.92 715.93-16.65L715.93-16.65Q715.85-17.53 716.05-18.58L716.05-18.58Q716.1-21.53 717.65-22.8 719.2-24.07 723.3-24.07L723.3-24.07Q727.23-24.07 728.76-22.83 730.28-21.58 730.43-18.73L730.43-18.73Q730.43-17.99 730.42-17.05 730.41-16.11 730.33-15.41L730.33-15.41 727.38-15.41Q727.5-16.26 727.49-17.36 727.48-18.46 727.43-19.07L727.43-19.07Q727.4-20.36 726.54-20.85 725.67-21.34 723.3-21.34L723.3-21.34Q720.91-21.34 720.04-20.85 719.17-20.36 719.08-19.07L719.08-19.07Q719.05-18.46 719-18.05 718.95-17.65 718.98-16.94L718.98-16.94Q719.05-16.09 719.24-15.43 719.42-14.77 720.07-14.34 720.71-13.92 722.18-13.7L722.18-13.7 724.91-13.13Q727.89-12.52 729.26-11.24 730.62-9.96 730.62-7.37L730.62-7.37Q730.62-6.84 730.61-6.23 730.6-5.62 730.55-5.05L730.55-5.05Q730.38-2.2 728.76-0.95 727.13 0.29 723.08 0.29Z" opacity="1" transform="matrix(1,0,0,1,0,0)" fill="#bb84e8" class="slogan-text-1" data-fill-palette-color="secondary" id="text-1"></path></svg></g></svg></g></svg></g></svg></g><g></g></svg></g><defs></defs></svg><rect width="395.52" height="148.90677961182465" fill="none" stroke="none" visibility="hidden"></rect></g></svg></g></svg>