<svg width="106" height="85" viewBox="0 0 106 85" fill="none" xmlns="http://www.w3.org/2000/svg">
<path d="M87.0367 58.1618L77.7394 48.8646L84.6387 45.5152C85.1111 45.2893 85.3945 44.798 85.3633 44.2739C85.337 43.7497 84.9887 43.2979 84.4966 43.1295L73.2401 39.2568L73.2392 16.6126H76.0389C76.7561 16.6126 77.332 16.0367 77.332 15.3195C77.332 14.6081 76.7561 14.0265 76.0389 14.0265H73.2392V1.79308C73.2392 1.07587 72.6576 0.5 71.9462 0.5H17.8204C17.1032 0.5 16.5274 1.0759 16.5274 1.79308V14.0265H13.5338C12.8224 14.0265 12.2407 14.6081 12.2407 15.3195C12.2407 16.0367 12.8224 16.6126 13.5338 16.6126H16.5274V47.1035C16.5274 47.815 17.1033 48.3966 17.8204 48.3966H61.418L65.9759 61.6454C66.15 62.1366 66.6035 62.4792 67.1202 62.5121C67.6444 62.5507 68.1356 62.2599 68.3616 61.7875L71.7167 54.8882L81.0082 64.1863C81.2547 64.4254 81.5841 64.5609 81.9267 64.5609C81.9916 64.5609 82.0622 64.5552 82.1271 64.542C82.1658 64.5346 82.2052 64.5289 82.2438 64.5157C82.2882 64.5083 82.3342 64.4968 82.3794 64.4771C82.3925 64.4771 82.4056 64.4714 82.418 64.464C82.5732 64.3991 82.7162 64.303 82.8386 64.1863L87.0349 59.99C87.274 59.7509 87.4161 59.4215 87.4161 59.0781C87.4161 58.7363 87.2748 58.4061 87.0357 58.1604L87.0367 58.1618ZM19.1145 3.08554H70.6513V29.3492L57.3516 16.0569C56.8661 15.5714 56.0068 15.5714 55.5213 16.0569L37.5281 34.0442L31.5088 28.0306C31.0232 27.545 30.1639 27.545 29.6784 28.0306L19.1128 38.5888V3.08618L19.1145 3.08554ZM19.1145 45.8103V42.2489L30.5979 30.7722L36.6173 36.7915C37.1028 37.277 37.9555 37.277 38.4402 36.7915L56.4349 18.7975L70.6524 33.009V38.3629L58.8783 34.3096C58.3739 34.1354 57.8374 34.2965 57.5072 34.6711C57.5014 34.6711 57.5014 34.6711 57.494 34.6768C57.1383 35.0129 56.9962 35.537 57.1646 36.0274L60.527 45.8094L19.1145 45.8103ZM81.9303 61.4389L72.2642 51.7728C71.966 51.4746 71.547 51.3464 71.1321 51.4113C70.7189 51.482 70.3689 51.7473 70.1816 52.1228L67.408 57.8455L63.5806 46.7245C63.5674 46.6801 63.5543 46.6407 63.5362 46.6021L60.439 37.5892L80.6961 44.5591L74.9807 47.3327C74.5995 47.5143 74.3342 47.87 74.2693 48.2832C74.1986 48.6964 74.3342 49.1171 74.625 49.4153L84.2976 59.0814L81.9303 61.4389Z" fill="#5636D3"/>
<path d="M82.8454 64.1873C82.723 64.3097 82.5801 64.4075 82.4248 64.465C82.5801 64.4001 82.7214 64.3039 82.8454 64.1873Z" fill="#5636D3"/>
<path d="M92.5624 16.615H84.3029C83.5889 16.615 83.0098 16.0359 83.0098 15.322C83.0098 14.608 83.5889 14.0289 84.3029 14.0289H92.5624C93.2764 14.0289 93.8555 14.608 93.8555 15.322C93.8555 16.0359 93.2764 16.615 92.5624 16.615Z" fill="#5636D3"/>
<path d="M104.707 20.4952C103.993 20.4952 103.414 19.916 103.414 19.2021V16.6159H100.828C100.114 16.6159 99.5347 16.0367 99.5347 15.3228C99.5347 14.6089 100.114 14.0297 100.828 14.0297H104.707C105.421 14.0297 106 14.6089 106 15.3228V19.202C106 19.9176 105.421 20.4952 104.707 20.4952Z" fill="#5636D3"/>
<path d="M104.705 72.2696C103.991 72.2696 103.412 71.6904 103.412 70.9765V62.3481C103.412 61.6342 103.991 61.055 104.705 61.055C105.419 61.055 105.998 61.6334 105.998 62.3481V70.9765C105.998 71.6912 105.419 72.2696 104.705 72.2696ZM104.705 55.0117C103.991 55.0117 103.412 54.4325 103.412 53.7186V45.0893C103.412 44.3754 103.991 43.7962 104.705 43.7962C105.419 43.7962 105.998 44.3754 105.998 45.0893V53.7186C105.998 54.4325 105.419 55.0117 104.705 55.0117ZM104.705 37.7537C103.991 37.7537 103.412 37.1746 103.412 36.4607V27.8314C103.412 27.1175 103.991 26.5383 104.705 26.5383C105.419 26.5383 105.998 27.1183 105.998 27.8314V36.4607C105.998 37.1746 105.419 37.7537 104.705 37.7537Z" fill="#5636D3"/>
<path d="M104.707 84.7769H100.828C100.114 84.7769 99.5347 84.1977 99.5347 83.4838C99.5347 82.7699 100.114 82.1907 100.828 82.1907H103.414V79.6045C103.414 78.8906 103.993 78.3114 104.707 78.3114C105.421 78.3106 106 78.8906 106 79.6037V83.4829C106 84.1968 105.421 84.7769 104.707 84.7769Z" fill="#5636D3"/>
<path d="M93.4702 84.7769H86.1127C85.3988 84.7769 84.8196 84.1977 84.8196 83.4838C84.8196 82.7699 85.3988 82.1907 86.1127 82.1907H93.4702C94.1841 82.1907 94.7633 82.7699 94.7633 83.4838C94.7633 84.1969 94.1841 84.7769 93.4702 84.7769ZM78.7541 84.7769H71.3966C70.6827 84.7769 70.1035 84.1977 70.1035 83.4838C70.1035 82.7699 70.6827 82.1907 71.3966 82.1907H78.7541C79.468 82.1907 80.0472 82.7699 80.0472 83.4838C80.0472 84.1969 79.468 84.7769 78.7541 84.7769ZM64.038 84.7769H56.6805C55.9666 84.7769 55.3874 84.1977 55.3874 83.4838C55.3874 82.7699 55.9666 82.1907 56.6805 82.1907H64.038C64.7519 82.1907 65.3311 82.7699 65.3311 83.4838C65.3311 84.1969 64.7519 84.7769 64.038 84.7769ZM49.3219 84.7769H41.9643C41.2504 84.7769 40.6713 84.1977 40.6713 83.4838C40.6713 82.7699 41.2504 82.1907 41.9643 82.1907H49.3219C50.0358 82.1907 50.615 82.7699 50.615 83.4838C50.6158 84.1969 50.0374 84.7769 49.3219 84.7769ZM34.6074 84.7769H27.2499C26.536 84.7769 25.9568 84.1977 25.9568 83.4838C25.9568 82.7699 26.536 82.1907 27.2499 82.1907H34.6074C35.3213 82.1907 35.9005 82.7699 35.9005 83.4838C35.9005 84.1969 35.3213 84.7769 34.6074 84.7769ZM19.8913 84.7769H12.5338C11.8199 84.7769 11.2407 84.1977 11.2407 83.4838C11.2407 82.7699 11.8199 82.1907 12.5338 82.1907H19.8913C20.6052 82.1907 21.1844 82.7699 21.1844 83.4838C21.1844 84.1969 20.6052 84.7769 19.8913 84.7769Z" fill="#5636D3"/>
<path d="M5.17229 84.7768H1.29308C0.579179 84.7768 0 84.1968 0 83.4838V79.6045C0 78.8906 0.579179 78.3115 1.29308 78.3115C2.00699 78.3115 2.58617 78.8906 2.58617 79.6045V82.1908H5.17238C5.88628 82.1908 6.46546 82.7699 6.46546 83.4838C6.46546 84.1969 5.8862 84.7768 5.17229 84.7768Z" fill="#5636D3"/>
<path d="M1.29943 72.2695C0.585524 72.2695 0.00634766 71.6912 0.00634766 70.9756V62.3463C0.00634766 61.6324 0.585524 61.0532 1.29943 61.0532C2.01333 61.0532 2.5925 61.6324 2.5925 62.3463V70.9756C2.5925 71.6912 2.01333 72.2695 1.29943 72.2695ZM1.29943 55.0116C0.585524 55.0116 0.00634766 54.4324 0.00634766 53.7185V45.0892C0.00634766 44.3753 0.585524 43.7961 1.29943 43.7961C2.01333 43.7961 2.5925 44.3753 2.5925 45.0892V53.7185C2.5925 54.4324 2.01333 55.0116 1.29943 55.0116ZM1.29943 37.753C0.585524 37.753 0.00634766 37.1746 0.00634766 36.4599V27.8315C0.00634766 27.1176 0.585524 26.5384 1.29943 26.5384C2.01333 26.5384 2.5925 27.1176 2.5925 27.8315V36.4599C2.5925 37.1746 2.01333 37.753 1.29943 37.753Z" fill="#5636D3"/>
<path d="M1.29943 20.4952C0.585527 20.4952 0.00634766 19.9177 0.00634766 19.2022V15.3229C0.00634766 14.609 0.585527 14.0299 1.29943 14.0299H5.17864C5.89255 14.0299 6.47173 14.609 6.47173 15.3229C6.47173 16.0368 5.89255 16.616 5.17864 16.616H2.59243V19.2022C2.59243 19.9178 2.01334 20.4952 1.29943 20.4952Z" fill="#5636D3"/>
<path d="M33.6903 22.4933C30.1585 22.4933 27.2856 19.6195 27.2856 16.0886C27.2856 12.5568 30.1593 9.68398 33.6903 9.68398C37.2212 9.68398 40.0949 12.5577 40.0949 16.0886C40.0949 19.6195 37.2229 22.4933 33.6903 22.4933ZM33.6903 12.2693C31.5846 12.2693 29.8719 13.9831 29.8719 16.0878C29.8719 18.1934 31.5856 19.9062 33.6903 19.9062C35.7959 19.9062 37.5087 18.1925 37.5087 16.0878C37.5087 13.983 35.7966 12.2693 33.6903 12.2693Z" fill="#5636D3"/>
</svg>
